<svg version="1.1" viewBox="0.0 0.0 171.89501312335958 80.0" fill="none" stroke="none" stroke-linecap="square" stroke-miterlimit="10" xmlns:xlink="http://www.w3.org/1999/xlink" xmlns="http://www.w3.org/2000/svg"><clipPath id="p.0"><path d="m0 0l171.89502 0l0 80.0l-171.89502 0l0 -80.0z" clip-rule="nonzero"/></clipPath><g clip-path="url(#p.0)"><path fill="#000000" fill-opacity="0.0" d="m0 0l171.89502 0l0 80.0l-171.89502 0z" fill-rule="evenodd"/><path fill="#cfe2f3" d="m13.691739 8.796592c1.0310974 0.032608986 1.9077902 0.19021606 2.6300821 0.47282505c0.72229004 0.282609 1.3896255 0.76630306 2.0020027 1.4510851c0.61237717 0.6847811 1.0782032 1.6874971 1.3974762 3.0081472c0.3192711 1.3152151 0.47891045 2.9266262 0.47891045 4.8342323c0 1.7010841 -0.104681015 3.1793423 -0.31404114 4.4347744c-0.20412445 1.25 -0.4841423 2.277172 -0.84005547 3.0815182c-0.35591316 0.79891205 -0.8165035 1.4402122 -1.3817749 1.9239101c-0.5600376 0.48369598 -1.1540947 0.81793404 -1.7821741 1.0027142c-0.6228466 0.17934799 -1.3529882 0.269022 -2.1904259 0.269022l0 -20.47823zm-5.644862 -6.9619455c-3.663794 0 -5.495693 1.9864095 -5.495693 5.9592295l0 21.130402c0 2.7065163 0.42395353 4.5787964 1.2718604 5.6168365c0.85313964 1.032608 2.2610853 1.548912 4.223833 1.548912l9.507549 0c2.0569592 0 3.90456 -0.34239197 5.542799 -1.0271721c1.6382389 -0.6847801 2.9886093 -1.5869522 4.051111 -2.7065163c1.0625019 -1.119566 1.9470482 -2.437498 2.653635 -3.9537983c0.70658875 -1.5217361 1.211668 -3.0815182 1.5152416 -4.6793423c0.30880356 -1.6032562 0.46320724 -3.2581444 0.46320724 -4.9646645c0 -5.2771654 -1.5204754 -9.415747 -4.5614243 -12.415743c-3.035715 -3.0054297 -7.0632744 -4.508145 -12.082675 -4.508145z" fill-rule="evenodd"/><path fill="#cfe2f3" d="m48.5699 18.057447c0.8688431 0 1.5754318 0.48369408 2.11977 1.4510841l0 9.366833c-0.5443382 0.9021721 -1.2666283 1.3532581 -2.166874 1.3532581c-0.8688431 0 -1.5466461 -0.60054016 -2.033409 -1.8016262c-0.48152542 -1.201086 -0.72229004 -2.57065 -0.72229004 -4.1086903c0 -1.6358643 0.2564659 -3.0869503 0.76939774 -4.3532543c0.5181656 -1.2717361 1.1959686 -1.9076042 2.0334053 -1.9076042zm-4.4436607 -6.2119474c-2.569889 0 -4.6844215 1.1277151 -6.3435974 3.3831472c-1.6539459 2.2554321 -2.480915 5.2853184 -2.480915 9.089659c0 3.7391243 0.8348236 6.6874866 2.504467 8.845097c1.6748772 2.1521683 3.781559 3.2282562 6.3200455 3.2282562c2.8001862 0 5.22876 -0.71739197 7.285721 -2.152172c0.67518616 1.233696 2.0752792 1.8505402 4.200279 1.8505402c2.0255547 0 3.4387321 -0.39130402 4.2395363 -1.173912c0.8060341 -0.78804016 1.2090492 -2.1820602 1.2090492 -4.1820583l0 -13.027153c0 -2.1032572 -0.4841423 -3.5461893 -1.4524307 -4.3287973c-0.96305466 -0.788043 -2.31081 -1.1820631 -4.0432625 -1.1820631c-1.9313431 0 -3.3314362 0.836956 -4.200279 2.5108652c-2.2192116 -1.9076052 -4.632084 -2.8614082 -7.238613 -2.8614082z" fill-rule="evenodd"/><path fill="#cfe2f3" d="m70.55938 12.196043c-1.4131775 0 -2.46521 0.30978203 -3.1560974 0.9293461c-0.69088745 0.61956406 -1.1828766 1.7228231 -1.4759827 3.3097782c-0.2878723 1.5815182 -0.43180847 4.0081463 -0.43180847 7.2798786c0 1.8043461 0.27217102 3.4266262 0.81650543 4.8668404c0.5495682 1.4347801 1.2587738 2.6114101 2.127617 3.5298882c0.8688431 0.9184723 1.8737717 1.6874962 3.0147858 2.3070602c1.1410065 0.6141319 2.27417 1.046196 3.399475 1.2961922c1.1253128 0.25 2.2584686 0.375 3.3994827 0.375c1.1462402 0 2.2820206 -0.125 3.4073257 -0.375c1.1253052 -0.24999619 2.250618 -0.68206024 3.3759232 -1.2961922c1.1253128 -0.61956406 2.1119232 -1.388588 2.9598236 -2.3070602c0.8531418 -0.918478 1.5518799 -2.095108 2.0962143 -3.5298882c0.5495758 -1.4402142 0.8243561 -3.0624943 0.8243561 -4.8668404c0 -1.9673882 -0.049720764 -3.5923862 -0.14916992 -4.8749924c-0.09420776 -1.2880402 -0.23814392 -2.3913002 -0.43180084 -3.3097763c-0.18842316 -0.918478 -0.49199677 -1.6032591 -0.9107132 -2.0543451c-0.41872406 -0.4510851 -0.9028702 -0.7771721 -1.4524384 -0.9782591c-0.5443344 -0.20108795 -1.2509232 -0.30163002 -2.1197662 -0.30163002c-1.3503723 0 -2.4285736 0.16847897 -3.234604 0.50543404c-0.80080414 0.331522 -1.3713074 0.81521606 -1.7115173 1.4510841c-0.3349762 0.635869 -0.5024643 1.4701061 -0.5024643 2.5027142l-0.04710388 8.062487c0 1.4728222 -0.13085175 2.4836903 -0.39255524 3.0326042c-0.2564621 0.54891396 -0.8505249 0.8233681 -1.7821732 0.8233681c-0.3506775 0 -0.64901733 -0.032608032 -0.8950119 -0.097826004c-0.2407608 -0.065216064 -0.43442535 -0.19021797 -0.58097076 -0.3749981c-0.14131927 -0.18478203 -0.2617035 -0.35869598 -0.36114502 -0.52173996c-0.09421539 -0.1684761 -0.15702057 -0.4347782 -0.18842316 -0.79891014c-0.031410217 -0.36956596 -0.04711151 -0.6793499 -0.04711151 -0.929348c0 -0.25543404 0 -0.64945793 0 -1.1820621l-0.04710388 -8.013575c0 -1.5326061 -0.41871643 -2.6576052 -1.2561569 -3.3749952c-0.8374405 -0.72282505 -2.2532349 -1.0842371 -4.2473907 -1.0842371z" fill-rule="evenodd"/><path fill="#cfe2f3" d="m108.43136 16.157993c1.2195206 0 1.829277 1.0516281 1.829277 3.1548862c0 0.766304 -0.08112335 1.3668461 -0.24337769 1.8016281c-0.22505951 0.60326004 -0.5783539 0.90489006 -1.0598831 0.90489006c-0.19365692 0 -1.4000931 0.016304016 -3.6193085 0.04891205c0.09944153 -1.1032581 0.30879974 -2.1141262 0.6280823 -3.0326042c0.32450867 -0.9184761 0.70397186 -1.6277142 1.1383896 -2.1277142c0.43442535 -0.4999981 0.8766937 -0.7499981 1.3268204 -0.7499981zm0.18842316 -4.3124933c-3.9883041 0 -7.2438507 1.1440191 -9.766632 3.4320602c-2.522789 2.2880392 -3.7841797 5.4021654 -3.7841797 9.342376c0 3.6412983 1.277092 6.5135765 3.8312836 8.616835c2.5594254 2.1032562 5.799263 3.1548882 9.719528 3.1548882c1.7376862 0 3.3628387 -0.29891205 4.8754654 -0.89673996c1.512619 -0.60326004 2.7269058 -1.3315201 3.6428604 -2.1847801c0.91594696 -0.8532562 1.6303864 -1.7038002 2.1433182 -2.5516243c0.5129318 -0.85325813 0.7693939 -1.5815201 0.7693939 -2.1847801c0 -0.5 -0.1517868 -0.91576004 -0.45535278 -1.2472801c-0.3035736 -0.33695793 -0.7301407 -0.50543404 -1.2797165 -0.50543404c-0.31926727 0 -0.8426666 0.18478012 -1.570198 0.5543461c-0.72229004 0.36956596 -1.387001 0.63587 -1.9941483 0.79891205c-1.4498138 0.36956596 -2.8656082 0.554348 -4.247383 0.554348c-1.2875671 0 -2.3500671 -0.30706406 -3.1875076 -0.9211941c-0.8321991 -0.61956406 -1.4105606 -1.4646702 -1.7350693 -2.5353222l6.798958 -0.048913956c0.8060379 0 1.5623474 -0.07608795 2.2689362 -0.22826004c0.70658875 -0.15217209 1.3163528 -0.36956215 1.8292847 -0.6521721c0.5181656 -0.28260803 0.97875214 -0.5978241 1.3817749 -0.945652c0.40301514 -0.35326195 0.7249069 -0.7391319 0.9656677 -1.1576061c0.24076843 -0.41847992 0.41610718 -0.84239197 0.52601624 -1.271738c0.11515045 -0.43478012 0.17272186 -0.88586617 0.17272186 -1.3532581c0 -2.4076042 -0.8766937 -4.3043413 -2.6300812 -5.6902084c-1.7533875 -1.3858671 -4.5117035 -2.0788012 -8.2749405 -2.0788012z" fill-rule="evenodd"/><path stroke="#000000" stroke-width="1.0" stroke-linejoin="round" stroke-linecap="butt" d="m13.691739 8.796592c1.0310974 0.032608986 1.9077902 0.19021606 2.6300821 0.47282505c0.72229004 0.282609 1.3896255 0.76630306 2.0020027 1.4510851c0.61237717 0.6847811 1.0782032 1.6874971 1.3974762 3.0081472c0.3192711 1.3152151 0.47891045 2.9266262 0.47891045 4.8342323c0 1.7010841 -0.104681015 3.1793423 -0.31404114 4.4347744c-0.20412445 1.25 -0.4841423 2.277172 -0.84005547 3.0815182c-0.35591316 0.79891205 -0.8165035 1.4402122 -1.3817749 1.9239101c-0.5600376 0.48369598 -1.1540947 0.81793404 -1.7821741 1.0027142c-0.6228466 0.17934799 -1.3529882 0.269022 -2.1904259 0.269022l0 -20.47823zm-5.644862 -6.9619455c-3.663794 0 -5.495693 1.9864095 -5.495693 5.9592295l0 21.130402c0 2.7065163 0.42395353 4.5787964 1.2718604 5.6168365c0.85313964 1.032608 2.2610853 1.548912 4.223833 1.548912l9.507549 0c2.0569592 0 3.90456 -0.34239197 5.542799 -1.0271721c1.6382389 -0.6847801 2.9886093 -1.5869522 4.051111 -2.7065163c1.0625019 -1.119566 1.9470482 -2.437498 2.653635 -3.9537983c0.70658875 -1.5217361 1.211668 -3.0815182 1.5152416 -4.6793423c0.30880356 -1.6032562 0.46320724 -3.2581444 0.46320724 -4.9646645c0 -5.2771654 -1.5204754 -9.415747 -4.5614243 -12.415743c-3.035715 -3.0054297 -7.0632744 -4.508145 -12.082675 -4.508145z" fill-rule="evenodd"/><path stroke="#000000" stroke-width="1.0" stroke-linejoin="round" stroke-linecap="butt" d="m48.5699 18.057447c0.8688431 0 1.5754318 0.48369408 2.11977 1.4510841l0 9.366833c-0.5443382 0.9021721 -1.2666283 1.3532581 -2.166874 1.3532581c-0.8688431 0 -1.5466461 -0.60054016 -2.033409 -1.8016262c-0.48152542 -1.201086 -0.72229004 -2.57065 -0.72229004 -4.1086903c0 -1.6358643 0.2564659 -3.0869503 0.76939774 -4.3532543c0.5181656 -1.2717361 1.1959686 -1.9076042 2.0334053 -1.9076042zm-4.4436607 -6.2119474c-2.569889 0 -4.6844215 1.1277151 -6.3435974 3.3831472c-1.6539459 2.2554321 -2.480915 5.2853184 -2.480915 9.089659c0 3.7391243 0.8348236 6.6874866 2.504467 8.845097c1.6748772 2.1521683 3.781559 3.2282562 6.3200455 3.2282562c2.8001862 0 5.22876 -0.71739197 7.285721 -2.152172c0.67518616 1.233696 2.0752792 1.8505402 4.200279 1.8505402c2.0255547 0 3.4387321 -0.39130402 4.2395363 -1.173912c0.8060341 -0.78804016 1.2090492 -2.1820602 1.2090492 -4.1820583l0 -13.027153c0 -2.1032572 -0.4841423 -3.5461893 -1.4524307 -4.3287973c-0.96305466 -0.788043 -2.31081 -1.1820631 -4.0432625 -1.1820631c-1.9313431 0 -3.3314362 0.836956 -4.200279 2.5108652c-2.2192116 -1.9076052 -4.632084 -2.8614082 -7.238613 -2.8614082z" fill-rule="evenodd"/><path stroke="#000000" stroke-width="1.0" stroke-linejoin="round" stroke-linecap="butt" d="m70.55938 12.196043c-1.4131775 0 -2.46521 0.30978203 -3.1560974 0.9293461c-0.69088745 0.61956406 -1.1828766 1.7228231 -1.4759827 3.3097782c-0.2878723 1.5815182 -0.43180847 4.0081463 -0.43180847 7.2798786c0 1.8043461 0.27217102 3.4266262 0.81650543 4.8668404c0.5495682 1.4347801 1.2587738 2.6114101 2.127617 3.5298882c0.8688431 0.9184723 1.8737717 1.6874962 3.0147858 2.3070602c1.1410065 0.6141319 2.27417 1.046196 3.399475 1.2961922c1.1253128 0.25 2.2584686 0.375 3.3994827 0.375c1.1462402 0 2.2820206 -0.125 3.4073257 -0.375c1.1253052 -0.24999619 2.250618 -0.68206024 3.3759232 -1.2961922c1.1253128 -0.61956406 2.1119232 -1.388588 2.9598236 -2.3070602c0.8531418 -0.918478 1.5518799 -2.095108 2.0962143 -3.5298882c0.5495758 -1.4402142 0.8243561 -3.0624943 0.8243561 -4.8668404c0 -1.9673882 -0.049720764 -3.5923862 -0.14916992 -4.8749924c-0.09420776 -1.2880402 -0.23814392 -2.3913002 -0.43180084 -3.3097763c-0.18842316 -0.918478 -0.49199677 -1.6032591 -0.9107132 -2.0543451c-0.41872406 -0.4510851 -0.9028702 -0.7771721 -1.4524384 -0.9782591c-0.5443344 -0.20108795 -1.2509232 -0.30163002 -2.1197662 -0.30163002c-1.3503723 0 -2.4285736 0.16847897 -3.234604 0.50543404c-0.80080414 0.331522 -1.3713074 0.81521606 -1.7115173 1.4510841c-0.3349762 0.635869 -0.5024643 1.4701061 -0.5024643 2.5027142l-0.04710388 8.062487c0 1.4728222 -0.13085175 2.4836903 -0.39255524 3.0326042c-0.2564621 0.54891396 -0.8505249 0.8233681 -1.7821732 0.8233681c-0.3506775 0 -0.64901733 -0.032608032 -0.8950119 -0.097826004c-0.2407608 -0.065216064 -0.43442535 -0.19021797 -0.58097076 -0.3749981c-0.14131927 -0.18478203 -0.2617035 -0.35869598 -0.36114502 -0.52173996c-0.09421539 -0.1684761 -0.15702057 -0.4347782 -0.18842316 -0.79891014c-0.031410217 -0.36956596 -0.04711151 -0.6793499 -0.04711151 -0.929348c0 -0.25543404 0 -0.64945793 0 -1.1820621l-0.04710388 -8.013575c0 -1.5326061 -0.41871643 -2.6576052 -1.2561569 -3.3749952c-0.8374405 -0.72282505 -2.2532349 -1.0842371 -4.2473907 -1.0842371z" fill-rule="evenodd"/><path stroke="#000000" stroke-width="1.0" stroke-linejoin="round" stroke-linecap="butt" d="m108.43136 16.157993c1.2195206 0 1.829277 1.0516281 1.829277 3.1548862c0 0.766304 -0.08112335 1.3668461 -0.24337769 1.8016281c-0.22505951 0.60326004 -0.5783539 0.90489006 -1.0598831 0.90489006c-0.19365692 0 -1.4000931 0.016304016 -3.6193085 0.04891205c0.09944153 -1.1032581 0.30879974 -2.1141262 0.6280823 -3.0326042c0.32450867 -0.9184761 0.70397186 -1.6277142 1.1383896 -2.1277142c0.43442535 -0.4999981 0.8766937 -0.7499981 1.3268204 -0.7499981zm0.18842316 -4.3124933c-3.9883041 0 -7.2438507 1.1440191 -9.766632 3.4320602c-2.522789 2.2880392 -3.7841797 5.4021654 -3.7841797 9.342376c0 3.6412983 1.277092 6.5135765 3.8312836 8.616835c2.5594254 2.1032562 5.799263 3.1548882 9.719528 3.1548882c1.7376862 0 3.3628387 -0.29891205 4.8754654 -0.89673996c1.512619 -0.60326004 2.7269058 -1.3315201 3.6428604 -2.1847801c0.91594696 -0.8532562 1.6303864 -1.7038002 2.1433182 -2.5516243c0.5129318 -0.85325813 0.7693939 -1.5815201 0.7693939 -2.1847801c0 -0.5 -0.1517868 -0.91576004 -0.45535278 -1.2472801c-0.3035736 -0.33695793 -0.7301407 -0.50543404 -1.2797165 -0.50543404c-0.31926727 0 -0.8426666 0.18478012 -1.570198 0.5543461c-0.72229004 0.36956596 -1.387001 0.63587 -1.9941483 0.79891205c-1.4498138 0.36956596 -2.8656082 0.554348 -4.247383 0.554348c-1.2875671 0 -2.3500671 -0.30706406 -3.1875076 -0.9211941c-0.8321991 -0.61956406 -1.4105606 -1.4646702 -1.7350693 -2.5353222l6.798958 -0.048913956c0.8060379 0 1.5623474 -0.07608795 2.2689362 -0.22826004c0.70658875 -0.15217209 1.3163528 -0.36956215 1.8292847 -0.6521721c0.5181656 -0.28260803 0.97875214 -0.5978241 1.3817749 -0.945652c0.40301514 -0.35326195 0.7249069 -0.7391319 0.9656677 -1.1576061c0.24076843 -0.41847992 0.41610718 -0.84239197 0.52601624 -1.271738c0.11515045 -0.43478012 0.17272186 -0.88586617 0.17272186 -1.3532581c0 -2.4076042 -0.8766937 -4.3043413 -2.6300812 -5.6902084c-1.7533875 -1.3858671 -4.5117035 -2.0788012 -8.2749405 -2.0788012z" fill-rule="evenodd"/><path fill="#cfe2f3" d="m6.6628203 43.89239c-1.7330976 0 -3.0642438 0.48570633 -3.9934387 1.4571266c-0.9291947 0.96598816 -1.3937882 2.398693 -1.3937882 4.298115l0 24.152477c0 1.5683823 0.33670163 2.686325 1.010105 3.353836c0.67340326 0.667511 1.7148294 1.0012665 3.124278 1.0012665c1.2841649 0 2.22119 -0.29847717 2.811068 -0.89543915c0.5951004 -0.6023941 0.8926506 -1.7203369 0.8926506 -3.353836l0 -10.851112l8.801226 8.645073c0.29232788 0.3039093 0.75953484 0.7733383 1.401617 1.408287c0.6420841 0.6295166 1.1145077 1.0880966 1.4172802 1.3757172c0.30277252 0.28220367 0.71777725 0.6647949 1.2450123 1.1477966c0.53245926 0.48299408 0.97356606 0.84117126 1.3233166 1.0745239c0.35497284 0.23336029 0.76475906 0.48299408 1.229353 0.7489166c0.4645977 0.26591492 0.9057045 0.45043182 1.3233147 0.5535431c0.4176159 0.09768677 0.8352318 0.14653015 1.2528439 0.14653015c1.6025944 0 2.8215065 -0.4233017 3.6567364 -1.2698975c0.83522797 -0.8520279 1.2528439 -2.013382 1.2528439 -3.4840775l0 -25.20259c0 -1.5032539 -0.30537987 -2.5859222 -0.9161415 -3.2480087c-0.61076164 -0.6675072 -1.6052055 -1.0012627 -2.9833336 -1.0012627c-1.1849823 0 -2.1246147 0.35817337 -2.8188972 1.0745277c-0.689064 0.71635056 -1.033596 1.7908821 -1.033596 3.223587l0 10.899956l-12.1682415 -12.601295c-0.9918375 -0.9985504 -1.8505592 -1.6904831 -2.5761595 -2.0757942c-0.7203846 -0.38531113 -1.6730704 -0.5779648 -2.858049 -0.5779648z" fill-rule="evenodd"/><path fill="#cfe2f3" d="m42.88808 54.24694c-0.96051407 0 -1.7383194 0.10039902 -2.3334198 0.30119705c-0.5951042 0.20079422 -1.1092873 0.5345497 -1.5425644 1.0012627c-0.43327713 0.46671677 -0.75431824 1.1749268 -0.9631233 2.1246376c-0.20880508 0.94971085 -0.36019516 2.0839348 -0.45415497 3.4026756c-0.09396362 1.3187408 -0.14094543 3.0282211 -0.14094543 5.128433c0 4.232994 0.49591827 7.2747803 1.487751 9.125359c0.99705505 1.8505783 2.633583 2.7758636 4.90958 2.7758636c1.795742 0 3.4218292 -0.18180084 4.8782578 -0.5454025c1.4616508 -0.3690338 2.8502197 -1.0039825 4.1657066 -1.9048462c0.19314575 0.596962 0.47242355 1.079956 0.8378372 1.4489822c0.37063217 0.3690338 0.8587189 0.64580536 1.4642601 0.83031464c0.61076355 0.1790924 1.3494186 0.2686386 2.215969 0.2686386c2.0202103 0 3.4322662 -0.38259888 4.2361755 -1.1477966c0.8039093 -0.7651901 1.2058601 -2.1653366 1.2058601 -4.200432l0 -13.008308c0 -2.100216 -0.48286438 -3.5410614 -1.448597 -4.3225365c-0.96051407 -0.7869034 -2.3073235 -1.1803551 -4.0404205 -1.1803551c-0.99183655 0 -1.858387 0.23335648 -2.5996513 0.70007324c-0.73604584 0.46671295 -1.2972145 1.1260834 -1.6835098 1.9781075c-0.38106918 0.8520279 -0.5716095 1.8451538 -0.5716095 2.9793777l0 6.69952c0 0.7326355 -0.096572876 1.3838654 -0.28971863 1.9536896c-0.19314575 0.5643997 -0.47503662 1.0066986 -0.8456688 1.3268814c-0.36541367 0.3147583 -0.7908592 0.47214508 -1.2763367 0.47214508c-1.4094467 0 -2.11417 -0.94970703 -2.11417 -2.8491287l-0.04698181 -9.157921c0 -1.4001427 -0.3941269 -2.4502487 -1.182373 -3.150322c-0.78302765 -0.70007324 -2.0724106 -1.0501099 -3.8681526 -1.0501099z" fill-rule="evenodd"/><path fill="#cfe2f3" d="m77.38479 45.943764c-1.7330933 0 -3.4818573 0.51013184 -5.246277 1.5303917c-1.7644196 1.0148315 -2.646637 2.157196 -2.646637 3.4270935l0 4.6481514c-2.213356 0.16823578 -3.3200302 1.2020645 -3.3200302 3.1014824c0 0.59695816 0.104400635 1.0962372 0.31320953 1.4978294c0.2088089 0.40158844 0.5533371 0.72720337 1.0335922 0.9768448c0.48026276 0.2496376 1.122345 0.39073563 1.9262466 0.42329788l0 5.9017677c0 3.804268 0.65774536 6.5394363 1.9732285 8.205498c1.3154907 1.6660614 3.5601654 2.499092 6.7340393 2.499092c1.4094467 0 2.6831741 -0.3147583 3.821167 -0.94428253c1.1380005 -0.63494873 2.0280457 -1.4354248 2.6701279 -2.401413c0.6420822 -0.9714203 1.1301651 -1.9726791 1.4642563 -3.0037918c0.33931732 -1.0365448 0.50897217 -2.005249 0.50897217 -2.9061127c0 -0.5318451 -0.20098114 -0.97956085 -0.6029358 -1.3431625c-0.39672852 -0.3690338 -0.96572876 -0.5535431 -1.7069931 -0.5535431c-0.31843567 0 -0.5977173 0.14109802 -0.83784485 0.42329407c-0.24012756 0.28219604 -0.43327332 0.59967804 -0.57943726 0.9524231c-0.14616394 0.34732056 -0.34714508 0.6647949 -0.60292816 0.9524231c-0.2557907 0.28220367 -0.57683563 0.4233017 -0.96312714 0.4233017c-0.2557907 0 -0.47242737 -0.032562256 -0.64991 -0.09768677c-0.1722641 -0.07054901 -0.30799103 -0.20350647 -0.40717316 -0.39887238c-0.09396362 -0.20079803 -0.1670456 -0.47756958 -0.21925354 -0.83032227c-0.04698181 -0.3527527 -0.07047272 -0.79504395 -0.07047272 -1.3268814l0 -5.5028877l0.8691635 0c0.8978729 0 1.6495743 -0.04070282 2.2551193 -0.12210846c0.61076355 -0.081401825 1.132782 -0.22249985 1.5660553 -0.42329788c0.43327332 -0.20079422 0.74648285 -0.4829979 0.9396286 -0.8465996c0.19314575 -0.36902618 0.28971863 -0.8221779 0.28971863 -1.3594398c0 -1.2644691 -0.32886505 -2.1382027 -0.9866104 -2.6212006c-0.65774536 -0.48299408 -1.8688278 -0.7244911 -3.6332474 -0.7244911l-1.2998276 0l-0.04698181 -5.755245c0 -1.2644691 -0.16181946 -2.21418 -0.48547363 -2.8491287c-0.31842804 -0.63494873 -1.0048828 -0.9524231 -2.0593643 -0.9524231z" fill-rule="evenodd"/><path fill="#cfe2f3" d="m101.48748 45.943764c-1.7330933 0 -3.4818573 0.51013184 -5.246277 1.5303917c-1.7644196 1.0148315 -2.6466293 2.157196 -2.6466293 3.4270935l0 4.6481514c-2.2133636 0.16823578 -3.3200378 1.2020645 -3.3200378 3.1014824c0 0.59695816 0.104400635 1.0962372 0.31320953 1.4978294c0.2088089 0.40158844 0.5533371 0.72720337 1.0335999 0.9768448c0.48025513 0.2496376 1.1223373 0.39073563 1.9262466 0.42329788l0 5.9017677c0 3.804268 0.65773773 6.5394363 1.9732285 8.205498c1.3154831 1.6660614 3.5601578 2.499092 6.7340317 2.499092c1.4094467 0 2.6831741 -0.3147583 3.821167 -0.94428253c1.1380005 -0.63494873 2.0280457 -1.4354248 2.6701279 -2.401413c0.6420822 -0.9714203 1.1301651 -1.9726791 1.4642563 -3.0037918c0.33931732 -1.0365448 0.50897217 -2.005249 0.50897217 -2.9061127c0 -0.5318451 -0.20098114 -0.97956085 -0.6029358 -1.3431625c-0.39672852 -0.3690338 -0.96572876 -0.5535431 -1.7069931 -0.5535431c-0.31843567 0 -0.5977173 0.14109802 -0.83784485 0.42329407c-0.24012756 0.28219604 -0.43327332 0.59967804 -0.57943726 0.9524231c-0.14616394 0.34732056 -0.34714508 0.6647949 -0.60292816 0.9524231c-0.2557907 0.28220367 -0.57683563 0.4233017 -0.96312714 0.4233017c-0.2557907 0 -0.47242737 -0.032562256 -0.64991 -0.09768677c-0.1722641 -0.07054901 -0.30799103 -0.20350647 -0.40717316 -0.39887238c-0.09396362 -0.20079803 -0.1670456 -0.47756958 -0.21925354 -0.83032227c-0.04698181 -0.3527527 -0.07046509 -0.79504395 -0.07046509 -1.3268814l0 -5.5028877l0.8691559 0c0.8978729 0 1.6495819 -0.04070282 2.2551193 -0.12210846c0.61076355 -0.081401825 1.132782 -0.22249985 1.5660553 -0.42329788c0.43327332 -0.20079422 0.74648285 -0.4829979 0.9396286 -0.8465996c0.19315338 -0.36902618 0.28971863 -0.8221779 0.28971863 -1.3594398c0 -1.2644691 -0.32886505 -2.1382027 -0.9866104 -2.6212006c-0.65774536 -0.48299408 -1.8688278 -0.7244911 -3.6332474 -0.7244911l-1.29982 0l-0.04698181 -5.755245c0 -1.2644691 -0.16182709 -2.21418 -0.48548126 -2.8491287c-0.31842804 -0.63494873 -1.0048828 -0.9524231 -2.0593643 -0.9524231z" fill-rule="evenodd"/><path fill="#cfe2f3" d="m127.56215 60.148712c0.86654663 0 1.5712738 0.48299408 2.1141815 1.448986l0 9.353283c-0.5429077 0.9008713 -1.2632904 1.3513031 -2.1611633 1.3513031c-0.86654663 0 -1.5425644 -0.5996704 -2.028038 -1.7990189c-0.48025513 -1.1993484 -0.7203827 -2.5669327 -0.7203827 -4.1027527c0 -1.6334991 0.25578308 -3.0824814 0.7673645 -4.3469543c0.5167999 -1.2698975 1.19281 -1.9048462 2.028038 -1.9048462zm-4.4319305 -6.202965c-2.5631104 0 -4.6720657 1.1260834 -6.3268585 3.378254c-1.6495819 2.2521706 -2.4743652 5.2776756 -2.4743652 9.076511c0 3.7337189 0.8326187 6.6778183 2.4978561 8.832306c1.6704559 2.1490555 3.7715836 3.223587 6.3033676 3.223587c2.7927933 0 5.214966 -0.71635437 7.2664948 -2.1490555c0.6734009 1.2319107 2.0697937 1.8478622 4.1891937 1.8478622c2.0202026 0 3.429657 -0.39073944 4.228348 -1.1722183c0.8039093 -0.78689575 1.2058563 -2.1789017 1.2058563 -4.17601l0 -13.008308c0 -2.100216 -0.48286438 -3.5410614 -1.4485931 -4.3225365c-0.9605255 -0.7869034 -2.304718 -1.1803551 -4.032593 -1.1803551c-1.9262543 0 -3.322647 0.83574677 -4.1891937 2.5072365c-2.2133636 -1.90485 -4.6198654 -2.857273 -7.219513 -2.857273z" fill-rule="evenodd"/><path fill="#cfe2f3" d="m149.8303 43.89239c-0.60554504 0 -1.17453 0.06783676 -1.7070007 0.20351028c-0.52723694 0.13566971 -1.0153198 0.35274887 -1.4642487 0.65122986c-0.4489441 0.29847717 -0.82740784 0.68107605 -1.1353912 1.147789c-0.30278015 0.46671677 -0.5429077 1.0338287 -0.7203827 1.7013397c-0.17227173 0.667511 -0.2584076 1.4354172 -0.2584076 2.3037262l0.09396362 21.099838c0 2.670044 0.41500854 4.5314713 1.2450104 5.584297c0.8352356 1.0473938 2.150711 1.5710907 3.946457 1.5710907c1.8009644 0 3.1321106 -0.5833969 3.9934387 -1.7501831c0.8665619 -1.1667862 1.2998352 -3.1014786 1.2998352 -5.804085l0 -21.156822c0 -2.2304611 -0.44111633 -3.7120094 -1.3233185 -4.444641c-0.8822174 -0.73806 -2.205536 -1.10709 -3.9699554 -1.10709z" fill-rule="evenodd"/><path fill="#cfe2f3" d="m165.32146 43.89239c-0.6055298 0 -1.17453 0.06783676 -1.7070007 0.20351028c-0.5272217 0.13566971 -1.0153198 0.35274887 -1.4642487 0.65122986c-0.4489441 0.29847717 -0.8273926 0.68107605 -1.1353912 1.147789c-0.30278015 0.46671677 -0.5429077 1.0338287 -0.7203827 1.7013397c-0.17227173 0.667511 -0.2584076 1.4354172 -0.2584076 2.3037262l0.09396362 21.099838c0 2.670044 0.41500854 4.5314713 1.2450104 5.584297c0.8352356 1.0473938 2.1507263 1.5710907 3.946457 1.5710907c1.8009644 0 3.1321106 -0.5833969 3.9934387 -1.7501831c0.8665619 -1.1667862 1.2998352 -3.1014786 1.2998352 -5.804085l0 -21.156822c0 -2.2304611 -0.44110107 -3.7120094 -1.3233185 -4.444641c-0.8822174 -0.73806 -2.205536 -1.10709 -3.9699554 -1.10709z" fill-rule="evenodd"/><path stroke="#000000" stroke-width="1.0" stroke-linejoin="round" stroke-linecap="butt" d="m6.6628203 43.89239c-1.7330976 0 -3.0642438 0.48570633 -3.9934387 1.4571266c-0.9291947 0.96598816 -1.3937882 2.398693 -1.3937882 4.298115l0 24.152477c0 1.5683823 0.33670163 2.686325 1.010105 3.353836c0.67340326 0.667511 1.7148294 1.0012665 3.124278 1.0012665c1.2841649 0 2.22119 -0.29847717 2.811068 -0.89543915c0.5951004 -0.6023941 0.8926506 -1.7203369 0.8926506 -3.353836l0 -10.851112l8.801226 8.645073c0.29232788 0.3039093 0.75953484 0.7733383 1.401617 1.408287c0.6420841 0.6295166 1.1145077 1.0880966 1.4172802 1.3757172c0.30277252 0.28220367 0.71777725 0.6647949 1.2450123 1.1477966c0.53245926 0.48299408 0.97356606 0.84117126 1.3233166 1.0745239c0.35497284 0.23336029 0.76475906 0.48299408 1.229353 0.7489166c0.4645977 0.26591492 0.9057045 0.45043182 1.3233147 0.5535431c0.4176159 0.09768677 0.8352318 0.14653015 1.2528439 0.14653015c1.6025944 0 2.8215065 -0.4233017 3.6567364 -1.2698975c0.83522797 -0.8520279 1.2528439 -2.013382 1.2528439 -3.4840775l0 -25.20259c0 -1.5032539 -0.30537987 -2.5859222 -0.9161415 -3.2480087c-0.61076164 -0.6675072 -1.6052055 -1.0012627 -2.9833336 -1.0012627c-1.1849823 0 -2.1246147 0.35817337 -2.8188972 1.0745277c-0.689064 0.71635056 -1.033596 1.7908821 -1.033596 3.223587l0 10.899956l-12.1682415 -12.601295c-0.9918375 -0.9985504 -1.8505592 -1.6904831 -2.5761595 -2.0757942c-0.7203846 -0.38531113 -1.6730704 -0.5779648 -2.858049 -0.5779648z" fill-rule="evenodd"/><path stroke="#000000" stroke-width="1.0" stroke-linejoin="round" stroke-linecap="butt" d="m42.88808 54.24694c-0.96051407 0 -1.7383194 0.10039902 -2.3334198 0.30119705c-0.5951042 0.20079422 -1.1092873 0.5345497 -1.5425644 1.0012627c-0.43327713 0.46671677 -0.75431824 1.1749268 -0.9631233 2.1246376c-0.20880508 0.94971085 -0.36019516 2.0839348 -0.45415497 3.4026756c-0.09396362 1.3187408 -0.14094543 3.0282211 -0.14094543 5.128433c0 4.232994 0.49591827 7.2747803 1.487751 9.125359c0.99705505 1.8505783 2.633583 2.7758636 4.90958 2.7758636c1.795742 0 3.4218292 -0.18180084 4.8782578 -0.5454025c1.4616508 -0.3690338 2.8502197 -1.0039825 4.1657066 -1.9048462c0.19314575 0.596962 0.47242355 1.079956 0.8378372 1.4489822c0.37063217 0.3690338 0.8587189 0.64580536 1.4642601 0.83031464c0.61076355 0.1790924 1.3494186 0.2686386 2.215969 0.2686386c2.0202103 0 3.4322662 -0.38259888 4.2361755 -1.1477966c0.8039093 -0.7651901 1.2058601 -2.1653366 1.2058601 -4.200432l0 -13.008308c0 -2.100216 -0.48286438 -3.5410614 -1.448597 -4.3225365c-0.96051407 -0.7869034 -2.3073235 -1.1803551 -4.0404205 -1.1803551c-0.99183655 0 -1.858387 0.23335648 -2.5996513 0.70007324c-0.73604584 0.46671295 -1.2972145 1.1260834 -1.6835098 1.9781075c-0.38106918 0.8520279 -0.5716095 1.8451538 -0.5716095 2.9793777l0 6.69952c0 0.7326355 -0.096572876 1.3838654 -0.28971863 1.9536896c-0.19314575 0.5643997 -0.47503662 1.0066986 -0.8456688 1.3268814c-0.36541367 0.3147583 -0.7908592 0.47214508 -1.2763367 0.47214508c-1.4094467 0 -2.11417 -0.94970703 -2.11417 -2.8491287l-0.04698181 -9.157921c0 -1.4001427 -0.3941269 -2.4502487 -1.182373 -3.150322c-0.78302765 -0.70007324 -2.0724106 -1.0501099 -3.8681526 -1.0501099z" fill-rule="evenodd"/><path stroke="#000000" stroke-width="1.0" stroke-linejoin="round" stroke-linecap="butt" d="m77.38479 45.943764c-1.7330933 0 -3.4818573 0.51013184 -5.246277 1.5303917c-1.7644196 1.0148315 -2.646637 2.157196 -2.646637 3.4270935l0 4.6481514c-2.213356 0.16823578 -3.3200302 1.2020645 -3.3200302 3.1014824c0 0.59695816 0.104400635 1.0962372 0.31320953 1.4978294c0.2088089 0.40158844 0.5533371 0.72720337 1.0335922 0.9768448c0.48026276 0.2496376 1.122345 0.39073563 1.9262466 0.42329788l0 5.9017677c0 3.804268 0.65774536 6.5394363 1.9732285 8.205498c1.3154907 1.6660614 3.5601654 2.499092 6.7340393 2.499092c1.4094467 0 2.6831741 -0.3147583 3.821167 -0.94428253c1.1380005 -0.63494873 2.0280457 -1.4354248 2.6701279 -2.401413c0.6420822 -0.9714203 1.1301651 -1.9726791 1.4642563 -3.0037918c0.33931732 -1.0365448 0.50897217 -2.005249 0.50897217 -2.9061127c0 -0.5318451 -0.20098114 -0.97956085 -0.6029358 -1.3431625c-0.39672852 -0.3690338 -0.96572876 -0.5535431 -1.7069931 -0.5535431c-0.31843567 0 -0.5977173 0.14109802 -0.83784485 0.42329407c-0.24012756 0.28219604 -0.43327332 0.59967804 -0.57943726 0.9524231c-0.14616394 0.34732056 -0.34714508 0.6647949 -0.60292816 0.9524231c-0.2557907 0.28220367 -0.57683563 0.4233017 -0.96312714 0.4233017c-0.2557907 0 -0.47242737 -0.032562256 -0.64991 -0.09768677c-0.1722641 -0.07054901 -0.30799103 -0.20350647 -0.40717316 -0.39887238c-0.09396362 -0.20079803 -0.1670456 -0.47756958 -0.21925354 -0.83032227c-0.04698181 -0.3527527 -0.07047272 -0.79504395 -0.07047272 -1.3268814l0 -5.5028877l0.8691635 0c0.8978729 0 1.6495743 -0.04070282 2.2551193 -0.12210846c0.61076355 -0.081401825 1.132782 -0.22249985 1.5660553 -0.42329788c0.43327332 -0.20079422 0.74648285 -0.4829979 0.9396286 -0.8465996c0.19314575 -0.36902618 0.28971863 -0.8221779 0.28971863 -1.3594398c0 -1.2644691 -0.32886505 -2.1382027 -0.9866104 -2.6212006c-0.65774536 -0.48299408 -1.8688278 -0.7244911 -3.6332474 -0.7244911l-1.2998276 0l-0.04698181 -5.755245c0 -1.2644691 -0.16181946 -2.21418 -0.48547363 -2.8491287c-0.31842804 -0.63494873 -1.0048828 -0.9524231 -2.0593643 -0.9524231z" fill-rule="evenodd"/><path stroke="#000000" stroke-width="1.0" stroke-linejoin="round" stroke-linecap="butt" d="m101.48748 45.943764c-1.7330933 0 -3.4818573 0.51013184 -5.246277 1.5303917c-1.7644196 1.0148315 -2.6466293 2.157196 -2.6466293 3.4270935l0 4.6481514c-2.2133636 0.16823578 -3.3200378 1.2020645 -3.3200378 3.1014824c0 0.59695816 0.104400635 1.0962372 0.31320953 1.4978294c0.2088089 0.40158844 0.5533371 0.72720337 1.0335999 0.9768448c0.48025513 0.2496376 1.1223373 0.39073563 1.9262466 0.42329788l0 5.9017677c0 3.804268 0.65773773 6.5394363 1.9732285 8.205498c1.3154831 1.6660614 3.5601578 2.499092 6.7340317 2.499092c1.4094467 0 2.6831741 -0.3147583 3.821167 -0.94428253c1.1380005 -0.63494873 2.0280457 -1.4354248 2.6701279 -2.401413c0.6420822 -0.9714203 1.1301651 -1.9726791 1.4642563 -3.0037918c0.33931732 -1.0365448 0.50897217 -2.005249 0.50897217 -2.9061127c0 -0.5318451 -0.20098114 -0.97956085 -0.6029358 -1.3431625c-0.39672852 -0.3690338 -0.96572876 -0.5535431 -1.7069931 -0.5535431c-0.31843567 0 -0.5977173 0.14109802 -0.83784485 0.42329407c-0.24012756 0.28219604 -0.43327332 0.59967804 -0.57943726 0.9524231c-0.14616394 0.34732056 -0.34714508 0.6647949 -0.60292816 0.9524231c-0.2557907 0.28220367 -0.57683563 0.4233017 -0.96312714 0.4233017c-0.2557907 0 -0.47242737 -0.032562256 -0.64991 -0.09768677c-0.1722641 -0.07054901 -0.30799103 -0.20350647 -0.40717316 -0.39887238c-0.09396362 -0.20079803 -0.1670456 -0.47756958 -0.21925354 -0.83032227c-0.04698181 -0.3527527 -0.07046509 -0.79504395 -0.07046509 -1.3268814l0 -5.5028877l0.8691559 0c0.8978729 0 1.6495819 -0.04070282 2.2551193 -0.12210846c0.61076355 -0.081401825 1.132782 -0.22249985 1.5660553 -0.42329788c0.43327332 -0.20079422 0.74648285 -0.4829979 0.9396286 -0.8465996c0.19315338 -0.36902618 0.28971863 -0.8221779 0.28971863 -1.3594398c0 -1.2644691 -0.32886505 -2.1382027 -0.9866104 -2.6212006c-0.65774536 -0.48299408 -1.8688278 -0.7244911 -3.6332474 -0.7244911l-1.29982 0l-0.04698181 -5.755245c0 -1.2644691 -0.16182709 -2.21418 -0.48548126 -2.8491287c-0.31842804 -0.63494873 -1.0048828 -0.9524231 -2.0593643 -0.9524231z" fill-rule="evenodd"/><path stroke="#000000" stroke-width="1.0" stroke-linejoin="round" stroke-linecap="butt" d="m127.56215 60.148712c0.86654663 0 1.5712738 0.48299408 2.1141815 1.448986l0 9.353283c-0.5429077 0.9008713 -1.2632904 1.3513031 -2.1611633 1.3513031c-0.86654663 0 -1.5425644 -0.5996704 -2.028038 -1.7990189c-0.48025513 -1.1993484 -0.7203827 -2.5669327 -0.7203827 -4.1027527c0 -1.6334991 0.25578308 -3.0824814 0.7673645 -4.3469543c0.5167999 -1.2698975 1.19281 -1.9048462 2.028038 -1.9048462zm-4.4319305 -6.202965c-2.5631104 0 -4.6720657 1.1260834 -6.3268585 3.378254c-1.6495819 2.2521706 -2.4743652 5.2776756 -2.4743652 9.076511c0 3.7337189 0.8326187 6.6778183 2.4978561 8.832306c1.6704559 2.1490555 3.7715836 3.223587 6.3033676 3.223587c2.7927933 0 5.214966 -0.71635437 7.2664948 -2.1490555c0.6734009 1.2319107 2.0697937 1.8478622 4.1891937 1.8478622c2.0202026 0 3.429657 -0.39073944 4.228348 -1.1722183c0.8039093 -0.78689575 1.2058563 -2.1789017 1.2058563 -4.17601l0 -13.008308c0 -2.100216 -0.48286438 -3.5410614 -1.4485931 -4.3225365c-0.9605255 -0.7869034 -2.304718 -1.1803551 -4.032593 -1.1803551c-1.9262543 0 -3.322647 0.83574677 -4.1891937 2.5072365c-2.2133636 -1.90485 -4.6198654 -2.857273 -7.219513 -2.857273z" fill-rule="evenodd"/><path stroke="#000000" stroke-width="1.0" stroke-linejoin="round" stroke-linecap="butt" d="m149.8303 43.89239c-0.60554504 0 -1.17453 0.06783676 -1.7070007 0.20351028c-0.52723694 0.13566971 -1.0153198 0.35274887 -1.4642487 0.65122986c-0.4489441 0.29847717 -0.82740784 0.68107605 -1.1353912 1.147789c-0.30278015 0.46671677 -0.5429077 1.0338287 -0.7203827 1.7013397c-0.17227173 0.667511 -0.2584076 1.4354172 -0.2584076 2.3037262l0.09396362 21.099838c0 2.670044 0.41500854 4.5314713 1.2450104 5.584297c0.8352356 1.0473938 2.150711 1.5710907 3.946457 1.5710907c1.8009644 0 3.1321106 -0.5833969 3.9934387 -1.7501831c0.8665619 -1.1667862 1.2998352 -3.1014786 1.2998352 -5.804085l0 -21.156822c0 -2.2304611 -0.44111633 -3.7120094 -1.3233185 -4.444641c-0.8822174 -0.73806 -2.205536 -1.10709 -3.9699554 -1.10709z" fill-rule="evenodd"/><path stroke="#000000" stroke-width="1.0" stroke-linejoin="round" stroke-linecap="butt" d="m165.32146 43.89239c-0.6055298 0 -1.17453 0.06783676 -1.7070007 0.20351028c-0.5272217 0.13566971 -1.0153198 0.35274887 -1.4642487 0.65122986c-0.4489441 0.29847717 -0.8273926 0.68107605 -1.1353912 1.147789c-0.30278015 0.46671677 -0.5429077 1.0338287 -0.7203827 1.7013397c-0.17227173 0.667511 -0.2584076 1.4354172 -0.2584076 2.3037262l0.09396362 21.099838c0 2.670044 0.41500854 4.5314713 1.2450104 5.584297c0.8352356 1.0473938 2.1507263 1.5710907 3.946457 1.5710907c1.8009644 0 3.1321106 -0.5833969 3.9934387 -1.7501831c0.8665619 -1.1667862 1.2998352 -3.1014786 1.2998352 -5.804085l0 -21.156822c0 -2.2304611 -0.44110107 -3.7120094 -1.3233185 -4.444641c-0.8822174 -0.73806 -2.205536 -1.10709 -3.9699554 -1.10709z" fill-rule="evenodd"/></g></svg>